<?xml version="1.0" standalone="no"?>
<!DOCTYPE svg PUBLIC "-//W3C//DTD SVG 20010904//EN"
 "http://www.w3.org/TR/2001/REC-SVG-20010904/DTD/svg10.dtd">
<svg version="1.0" xmlns="http://www.w3.org/2000/svg"
 width="500.000000pt" height="500.000000pt" viewBox="0 0 500.000000 500.000000"
 preserveAspectRatio="xMidYMid meet">
<metadata>
Created by potrace 1.11, written by Peter Selinger 2001-2013
</metadata>
<g transform="translate(0.000000,500.000000) scale(0.100000,-0.100000)"
fill="#000000" stroke="none">
<path d="M2682 4648 l-11 -53 3 45 4 45 -14 -30 c-13 -30 -13 -30 -15 -5 -1
18 -6 10 -20 -30 l-20 -55 5 55 4 55 -15 -45 c-7 -25 -20 -72 -27 -105 l-14
-60 4 90 c4 93 0 101 -15 24 -8 -39 -9 -41 -10 -11 -2 55 -18 35 -25 -30 -14
-127 -24 -141 -26 -38 -3 103 -6 98 -19 -25 l-8 -80 -3 105 -3 105 -8 -80
c-12 -114 -16 -121 -20 -30 -1 48 -4 64 -6 41 -3 -25 -7 -35 -12 -27 -5 7 -12
-37 -17 -101 l-9 -113 -5 115 -5 115 -8 -110 c-11 -147 -14 -157 -17 -50 -1
50 -4 81 -7 70 -14 -68 -17 -71 -23 -20 -6 42 -7 35 -9 -45 -2 -52 -6 -120
-11 -150 -5 -43 -8 -21 -10 100 l-3 155 -13 -195 c-7 -107 -15 -202 -17 -212
-4 -12 6 -19 42 -26 l46 -10 -47 1 c-27 1 -50 7 -52 14 -3 7 -1 38 4 70 10 56
14 261 6 252 -2 -2 -9 -76 -15 -164 -7 -88 -17 -164 -23 -170 -8 -7 -9 -4 -4
10 13 35 18 238 8 295 -9 51 -10 47 -10 -55 1 -135 -11 -263 -25 -272 -6 -4
-8 6 -3 28 12 66 15 155 7 234 l-8 80 -3 -125 -4 -125 -6 90 -6 90 -2 -70 c-3
-87 -30 -247 -44 -260 -8 -7 -9 -4 -4 10 4 10 9 40 11 65 3 36 3 39 -4 15 l-8
-30 -5 30 c-3 17 -4 8 -3 -20 2 -27 1 -41 -2 -30 -5 15 -10 8 -22 -30 -13 -41
-25 -56 -68 -85 -29 -19 -52 -38 -53 -43 0 -4 30 13 67 38 37 25 79 45 93 46
23 0 23 1 5 9 -17 7 -16 9 10 9 17 0 41 -2 55 -6 l25 -7 -25 -7 c-16 -5 -1 -7
45 -8 39 -1 108 -4 155 -7 56 -4 80 -2 71 4 -11 8 -11 10 0 14 7 2 -55 17
-137 33 -191 38 -157 44 56 10 89 -14 164 -24 167 -22 2 3 -63 17 -144 32
-162 29 -226 49 -132 40 146 -13 360 -26 370 -23 15 5 -299 68 -337 68 -18 0
-24 4 -19 9 6 6 26 7 52 1 62 -14 240 -40 265 -39 28 1 -120 35 -217 50 -38 6
-73 14 -78 18 -4 4 -3 25 3 47 l10 39 -5 -42 c-4 -31 -2 -43 7 -43 7 0 83 -9
168 -20 85 -11 164 -20 175 -19 28 2 -202 47 -245 49 -19 1 -44 6 -55 11 -15
7 -8 8 23 4 125 -16 335 -35 338 -32 2 2 -33 10 -78 17 -161 24 -167 29 -33
25 l130 -4 -80 14 c-44 8 -123 19 -175 24 -86 8 -81 8 51 4 154 -6 248 4 159
17 -38 6 -32 7 40 10 l85 3 -70 9 c-38 5 -97 13 -130 17 l-60 8 95 3 c171 4
164 18 -10 18 -179 0 -170 -4 -150 57 9 28 9 27 4 -9 l-5 -39 123 8 c135 8
236 21 183 24 l-30 2 25 14 c24 13 21 14 -45 16 l-70 1 78 16 c90 18 104 37
20 28 l-58 -6 63 24 c61 23 98 45 57 33 -11 -3 -38 -9 -60 -12 l-40 -6 48 26
c29 16 45 30 41 37 -4 6 -3 8 3 5 6 -4 17 0 24 9 11 13 9 15 -14 10 -15 -3
-38 -8 -51 -11 -13 -3 -32 -8 -43 -11 -10 -3 11 9 47 27 72 36 70 51 -3 20
-26 -11 -47 -19 -47 -17 0 2 18 16 41 31 38 27 79 78 47 60 -7 -5 -21 -15 -30
-23 -25 -21 -22 -5 5 32 42 55 41 62 -3 21 l-43 -40 22 39 c31 55 0 28 -41
-35 -17 -27 -33 -48 -34 -46 -2 2 6 31 17 66 24 79 19 89 -10 19 -27 -64 -43
-99 -37 -77 7 27 19 149 14 149 -3 0 -10 -24 -16 -52z m-145 -140 c-3 -8 -6
-5 -6 6 -1 11 2 17 5 13 3 -3 4 -12 1 -19z m20 -80 c-3 -8 -6 -5 -6 6 -1 11 2
17 5 13 3 -3 4 -12 1 -19z m98 -8 c3 -5 1 -10 -4 -10 -6 0 -11 5 -11 10 0 6 2
10 4 10 3 0 8 -4 11 -10z m-15 -32 c10 -3 8 -6 -8 -10 -18 -5 -22 -2 -22 15 0
13 3 17 8 11 4 -6 14 -13 22 -16z m-153 -25 c-3 -10 -5 -4 -5 12 0 17 2 24 5
18 2 -7 2 -21 0 -30z m60 15 c-3 -8 -6 -5 -6 6 -1 11 2 17 5 13 3 -3 4 -12 1
-19z m-10 -47 c-5 -25 -3 -30 16 -33 20 -3 20 -4 -4 -9 -23 -5 -26 -3 -24 20
3 44 5 51 11 51 4 0 4 -13 1 -29z m-60 -33 c-3 -7 -5 -2 -5 12 0 14 2 19 5 13
2 -7 2 -19 0 -25z m136 25 c-7 -2 -19 -2 -25 0 -7 3 -2 5 12 5 14 0 19 -2 13
-5z m-166 -55 c-3 -8 -6 -5 -6 6 -1 11 2 17 5 13 3 -3 4 -12 1 -19z m20 -10
c-3 -8 -6 -5 -6 6 -1 11 2 17 5 13 3 -3 4 -12 1 -19z m-90 -20 c-3 -7 -5 -2
-5 12 0 14 2 19 5 13 2 -7 2 -19 0 -25z m40 -20 c-3 -7 -5 -2 -5 12 0 14 2 19
5 13 2 -7 2 -19 0 -25z m102 18 c-12 -10 -60 -16 -54 -6 3 5 18 10 32 10 15 0
24 -2 22 -4z m-52 -32 c-3 -3 -12 -4 -19 -1 -8 3 -5 6 6 6 11 1 17 -2 13 -5z
m-105 -46 c-6 -6 -7 0 -4 19 5 21 7 23 10 9 2 -10 0 -22 -6 -28z m-83 -72 c-9
-8 -10 -7 -5 7 3 10 7 31 8 45 1 22 2 21 5 -7 3 -19 -1 -38 -8 -45z m58 52
c-3 -8 -6 -5 -6 6 -1 11 2 17 5 13 3 -3 4 -12 1 -19z m133 8 c8 -2 -9 -4 -37
-5 -29 0 -53 3 -53 7 0 7 52 6 90 -2z m-304 -121 c-4 -25 -11 -45 -16 -45 -6
0 -5 11 0 26 6 14 10 37 10 51 0 15 3 24 6 20 4 -3 3 -27 0 -52z m-74 -87 c-8
-8 -9 -4 -5 13 4 13 8 18 11 10 2 -7 -1 -18 -6 -23z m211 5 c53 -10 97 -21 97
-26 0 -4 -10 -5 -22 -3 -13 3 -45 8 -73 11 -97 12 -165 28 -159 37 4 6 18 8
33 5 14 -3 70 -14 124 -24z"/>
<path d="M1798 4653 c7 -3 16 -2 19 1 4 3 -2 6 -13 5 -11 0 -14 -3 -6 -6z"/>
<path d="M1661 4611 c-10 -6 -9 -10 3 -14 8 -3 18 -2 21 3 8 13 -9 20 -24 11z"/>
<path d="M1526 4573 c-7 -8 -11 -9 -37 -12 -5 0 -7 -6 -4 -11 4 -6 11 -8 16
-5 5 4 9 1 9 -4 0 -6 8 -11 18 -11 14 0 15 2 2 10 -13 8 -12 11 5 24 11 9 15
16 9 16 -6 0 -14 -3 -18 -7z"/>
<path d="M1378 4493 c6 -2 18 -2 25 0 6 3 1 5 -13 5 -14 0 -19 -2 -12 -5z"/>
<path d="M1265 4434 c-35 -21 -37 -24 -16 -24 20 0 21 -2 11 -15 -16 -20 0
-19 28 1 15 10 21 22 17 33 -4 15 0 17 27 13 38 -5 35 4 -3 11 -15 3 -40 -4
-64 -19z"/>
<path d="M1183 4378 c-18 -11 -33 -24 -33 -29 0 -5 -5 -9 -12 -9 -17 0 -97
-63 -98 -77 0 -7 -4 -12 -9 -10 -13 4 -151 -125 -144 -136 3 -6 1 -7 -4 -4
-11 7 -182 -178 -229 -248 -15 -22 -37 -53 -49 -70 -48 -63 -135 -217 -129
-226 3 -6 -3 -17 -15 -25 -12 -8 -21 -20 -21 -25 0 -5 -16 -43 -35 -83 -19
-41 -35 -79 -35 -85 0 -6 -4 -19 -10 -29 -29 -51 -50 -124 -40 -142 8 -15 6
-21 -9 -29 -24 -14 -37 -67 -21 -86 10 -12 9 -15 -3 -15 -8 0 -17 -11 -20 -26
-4 -21 -1 -25 16 -22 15 2 24 17 35 58 8 30 15 69 16 85 1 17 6 35 12 40 6 6
24 46 40 90 45 128 168 364 250 481 42 60 71 110 65 112 -6 2 -9 8 -6 12 3 5
12 7 19 4 9 -3 26 12 45 40 37 53 256 273 307 308 22 15 34 31 34 47 0 19 4
22 23 17 17 -4 32 2 54 23 17 15 39 32 50 36 17 8 17 8 0 12 -11 3 -16 11 -13
19 3 8 4 14 3 13 -1 0 -17 -10 -34 -21z"/>
<path d="M2122 4230 c0 -19 3 -60 8 -90 l7 -55 1 50 c0 28 -3 68 -7 90 l-9 40
0 -35z"/>
<path d="M2112 4145 c0 -16 2 -22 5 -12 2 9 2 23 0 30 -3 6 -5 -1 -5 -18z"/>
<path d="M2643 4023 c9 -2 23 -2 30 0 6 3 -1 5 -18 5 -16 0 -22 -2 -12 -5z"/>
<path d="M2488 3913 c6 -2 18 -2 25 0 6 3 1 5 -13 5 -14 0 -19 -2 -12 -5z"/>
<path d="M1282 3667 c2 -18 12 -23 51 -29 58 -8 83 -28 98 -77 7 -24 9 -261 7
-708 l-3 -673 -25 -25 c-19 -18 -41 -27 -78 -32 -45 -5 -52 -9 -52 -27 l0 -22
659 1 660 0 -6 245 c-5 226 -7 248 -28 289 l-22 44 -22 -88 c-54 -216 -149
-354 -289 -418 -40 -19 -65 -22 -160 -22 -112 0 -114 0 -138 28 l-24 28 0 340
0 339 38 0 c126 0 253 -113 291 -257 10 -37 16 -43 38 -43 l26 0 -6 68 c-4 37
-7 183 -7 325 l0 257 -25 0 c-14 0 -25 -6 -25 -13 0 -30 -71 -156 -111 -197
-52 -54 -107 -82 -171 -88 l-48 -5 0 331 c0 228 4 339 11 356 17 37 67 50 166
43 67 -4 97 -11 147 -36 136 -67 207 -185 262 -438 3 -16 12 -23 27 -23 l22 0
1 210 c1 115 5 238 8 274 l7 64 -641 1 -641 1 3 -23z"/>
<path d="M2613 3134 c-14 -22 -15 -31 -5 -56 10 -27 9 -34 -13 -60 -31 -37
-32 -62 0 -93 28 -29 68 -32 122 -10 32 14 39 14 59 0 29 -19 48 -19 64 0 11
13 9 15 -13 15 -37 0 -53 24 -33 52 9 12 16 33 16 45 0 34 -27 28 -35 -8 -11
-51 -33 -48 -92 14 -62 65 -69 100 -20 105 22 3 30 -1 34 -17 6 -25 21 -27 29
-6 10 25 -16 45 -57 45 -30 0 -42 -5 -56 -26z m87 -203 c-28 -14 -34 -14 -58
0 -30 16 -41 61 -22 84 10 12 20 8 62 -27 l50 -42 -32 -15z"/>
<path d="M260 2974 c0 -8 6 -14 13 -14 8 -1 7 -5 -3 -13 -9 -7 -14 -20 -12
-29 2 -10 -1 -18 -7 -18 -6 0 -11 -11 -11 -25 0 -18 5 -25 19 -25 16 0 21 9
26 48 4 26 9 54 11 63 3 10 -3 18 -16 22 -13 3 -20 0 -20 -9z"/>
<path d="M230 2660 c0 -5 7 -10 15 -10 8 0 15 5 15 10 0 6 -7 10 -15 10 -8 0
-15 -4 -15 -10z"/>
<path d="M4725 2190 c3 -5 8 -10 11 -10 2 0 4 5 4 10 0 6 -5 10 -11 10 -5 0
-7 -4 -4 -10z"/>
<path d="M4680 1981 c0 -5 5 -13 10 -16 6 -3 10 -2 10 4 0 5 -4 13 -10 16 -5
3 -10 2 -10 -4z"/>
<path d="M4670 1917 c0 -7 9 -13 20 -13 24 0 26 11 4 20 -22 8 -24 8 -24 -7z"/>
<path d="M1263 1902 c12 -14 17 -37 17 -87 0 -50 -5 -73 -17 -87 -15 -17 -13
-18 65 -18 l82 0 -1 33 c0 27 -1 29 -9 11 -5 -13 -21 -24 -39 -27 -48 -10 -61
0 -61 44 0 38 1 39 35 39 19 0 35 4 35 8 0 4 -16 6 -35 4 -35 -4 -35 -4 -35
36 0 31 4 42 19 47 28 9 69 -4 74 -23 3 -15 5 -15 12 2 12 27 -10 36 -89 36
-66 0 -68 -1 -53 -18z"/>
<path d="M1483 1910 c-24 -10 -37 -39 -27 -64 4 -9 28 -28 55 -42 51 -25 63
-50 34 -74 -20 -17 -66 -4 -72 20 -7 26 -23 26 -23 0 0 -35 55 -51 104 -29 54
25 44 70 -25 104 -53 28 -64 56 -29 75 24 13 60 -3 60 -25 0 -8 5 -15 10 -15
18 0 11 39 -9 50 -23 12 -48 12 -78 0z"/>
<path d="M1627 1913 c-4 -3 -7 -18 -6 -32 0 -26 0 -26 11 -3 8 15 20 22 40 22
l28 0 0 -81 c0 -66 -3 -84 -17 -95 -16 -12 -12 -13 32 -13 39 0 46 2 33 10
-15 8 -18 25 -18 94 0 84 0 85 25 85 17 0 29 -7 35 -22 8 -21 9 -20 9 10 l1
32 -83 0 c-46 0 -87 -3 -90 -7z"/>
<path d="M1962 1910 c-27 -12 -39 -37 -23 -53 9 -9 13 -6 18 11 5 23 43 39 62
27 31 -19 -3 -102 -58 -143 -47 -35 -39 -43 37 -40 63 3 67 5 71 28 3 24 2 24
-16 7 -11 -9 -34 -17 -53 -17 l-33 0 47 50 c53 57 61 98 24 124 -25 18 -42 19
-76 6z"/>
<path d="M2170 1907 c-67 -34 -67 -159 1 -187 58 -25 109 18 109 91 0 62 -7
77 -41 94 -34 18 -37 18 -69 2z m76 -44 c16 -38 12 -96 -8 -120 -16 -20 -66
-16 -78 6 -5 11 -10 42 -10 70 0 56 17 81 56 81 19 0 29 -8 40 -37z"/>
<path d="M2362 1910 c-27 -12 -39 -37 -23 -53 9 -9 13 -6 18 11 5 23 43 39 62
27 31 -19 -3 -102 -58 -143 -47 -35 -39 -43 37 -40 63 3 67 5 71 28 3 24 2 24
-16 7 -11 -9 -34 -17 -53 -17 l-33 0 47 50 c53 57 61 98 24 124 -25 18 -42 19
-76 6z"/>
<path d="M2552 1910 c-27 -12 -39 -37 -23 -53 9 -9 13 -6 18 11 5 23 43 39 62
27 31 -19 -3 -102 -58 -143 -47 -35 -39 -43 37 -40 63 3 67 5 71 28 3 24 2 24
-16 7 -11 -9 -34 -17 -53 -17 l-33 0 47 50 c53 57 61 98 24 124 -25 18 -42 19
-76 6z"/>
<path d="M4672 1849 c-15 -24 -15 -29 2 -29 15 0 29 37 17 44 -4 3 -12 -4 -19
-15z"/>
<path d="M4655 1800 c-4 -6 -11 -8 -16 -5 -8 6 -13 -17 -12 -52 1 -7 -3 -11
-7 -8 -4 2 -15 -14 -23 -37 -13 -31 -14 -45 -5 -55 8 -11 7 -12 -6 -7 -11 4
-16 1 -16 -14 0 -32 29 -36 36 -4 4 15 13 36 20 48 21 31 52 134 43 139 -4 3
-10 1 -14 -5z"/>
<path d="M1844 1739 c-10 -17 13 -36 27 -22 12 12 4 33 -11 33 -5 0 -12 -5
-16 -11z"/>
<path d="M4543 1566 c-4 -11 -6 -24 -5 -28 1 -5 -2 -8 -7 -8 -8 0 -62 -92 -61
-105 1 -27 -245 -370 -320 -445 -11 -11 -20 -25 -20 -32 0 -6 -3 -9 -6 -5 -8
8 -44 -25 -44 -40 0 -7 -5 -13 -11 -13 -12 0 -102 -90 -91 -90 4 -1 -5 -6 -19
-13 -26 -12 -50 -29 -130 -94 -21 -17 -54 -41 -73 -53 -19 -11 -38 -30 -41
-40 -4 -13 -15 -20 -33 -20 -19 0 -23 -3 -13 -9 8 -5 10 -14 6 -21 -5 -8 -3
-11 6 -8 8 3 13 11 11 17 -1 7 3 11 10 10 27 -3 38 2 38 17 0 8 4 13 9 10 5
-3 20 3 34 14 14 11 30 20 35 20 6 0 12 3 14 8 2 4 37 33 78 65 103 79 140
112 140 124 0 6 9 13 21 16 11 3 23 15 26 26 3 12 11 21 18 21 11 0 71 63 172
180 98 113 269 403 257 435 -4 9 -1 15 8 15 8 0 20 11 26 25 15 33 15 32 -8
38 -14 3 -21 -1 -27 -17z m-503 -726 c0 -5 -5 -10 -11 -10 -5 0 -7 5 -4 10 3
6 8 10 11 10 2 0 4 -4 4 -10z"/>
<path d="M1976 1480 c3 -14 13 -38 21 -53 22 -44 9 -42 -22 3 -15 22 -29 40
-32 40 -6 0 28 -62 58 -107 16 -23 29 -45 29 -48 0 -4 -29 19 -65 50 -36 32
-65 54 -65 49 0 -5 30 -40 68 -78 37 -39 56 -61 42 -49 -37 31 -148 90 -131
70 11 -14 11 -17 0 -17 -8 -1 4 -17 26 -37 42 -38 34 -36 -25 4 -22 15 -13 3
25 -33 l60 -57 -50 28 c-27 16 -57 33 -65 39 -9 6 -7 1 4 -11 10 -12 60 -52
112 -88 96 -68 125 -95 56 -51 -56 35 -163 88 -168 83 -3 -3 25 -23 61 -46 36
-23 65 -43 65 -46 0 -2 -23 8 -50 22 -63 33 -77 24 -18 -13 150 -93 308 -198
308 -205 0 -4 -35 16 -77 45 -91 63 -204 121 -253 131 -24 4 -3 -10 65 -45
110 -58 156 -90 58 -41 -61 30 -145 63 -150 58 -1 -2 36 -23 82 -47 46 -25 82
-46 81 -47 -1 -1 -39 14 -85 33 -45 20 -84 34 -87 31 -2 -2 16 -12 41 -21 25
-10 45 -22 45 -27 0 -6 -8 -6 -19 1 -11 5 -23 10 -28 10 -4 0 46 -30 112 -66
130 -71 178 -105 78 -55 -64 32 -165 72 -169 68 -2 -2 51 -31 116 -66 66 -34
120 -64 120 -67 0 -2 -24 8 -52 22 -49 25 -153 64 -167 64 -3 -1 18 -12 47
-26 61 -30 63 -44 2 -20 -22 9 -46 16 -53 16 -6 0 13 -11 44 -24 100 -40 329
-171 329 -187 0 -6 -15 1 -32 14 -56 41 -127 78 -226 118 -52 22 -98 39 -101
39 -3 0 60 -35 141 -78 148 -78 217 -121 101 -63 -60 30 -189 81 -202 81 -3
-1 44 -26 104 -56 157 -79 235 -124 235 -134 0 -5 -28 8 -62 30 -60 38 -252
120 -280 120 -7 -1 21 -15 63 -33 115 -48 280 -140 291 -161 11 -21 8 -20 -58
25 -64 43 -260 126 -271 115 -3 -2 6 -7 19 -11 41 -13 210 -96 205 -101 -3 -3
-29 7 -58 22 -58 29 -160 66 -166 60 -2 -2 18 -11 44 -21 110 -41 313 -162
313 -186 0 -5 -20 5 -45 24 -55 42 -178 103 -225 112 -30 5 -32 4 -16 -6 11
-7 37 -16 59 -21 41 -9 131 -57 123 -65 -2 -2 -19 3 -38 13 -46 23 -35 14 55
-46 43 -29 84 -62 92 -74 11 -17 27 -89 30 -130 0 -5 5 -11 11 -13 8 -3 8 12
-1 54 -24 107 -26 125 -13 117 7 -4 8 -3 4 4 -4 6 -2 22 4 34 11 22 10 22 -4
4 -27 -33 -26 -13 1 32 25 41 45 54 24 15 -7 -15 -7 -20 4 -20 7 0 11 7 7 15
-3 10 -1 13 6 8 6 -3 14 -1 18 5 4 8 3 9 -4 5 -7 -4 -12 -5 -12 -3 0 5 64 137
100 207 16 30 27 61 24 68 -2 7 4 25 13 40 9 15 12 23 6 17 -17 -15 -193 -266
-211 -300 -12 -22 -17 -26 -20 -14 -1 9 37 77 86 150 91 138 143 222 125 204
-21 -21 -73 -95 -147 -204 -79 -118 -106 -132 -37 -19 57 94 193 364 173 343
-23 -24 -212 -298 -217 -316 -6 -17 -25 -28 -25 -13 0 3 38 62 83 132 92 139
142 222 134 222 -7 0 -181 -250 -202 -290 -10 -19 -20 -30 -22 -23 -2 7 12 38
33 70 34 53 160 264 172 288 33 67 -149 -198 -191 -277 -14 -27 -27 -42 -29
-36 -3 7 19 49 49 94 29 45 53 85 53 88 0 4 10 23 23 44 36 58 90 158 80 147
-22 -23 -142 -205 -177 -268 -21 -37 -40 -66 -42 -64 -3 2 16 39 41 82 49 83
158 295 151 295 -2 0 -19 -24 -37 -52 -18 -29 -47 -76 -66 -105 -18 -28 -49
-84 -68 -124 -19 -41 -35 -67 -35 -59 0 8 21 54 46 104 39 74 98 211 120 276
3 8 -10 -11 -28 -42 -19 -32 -38 -61 -42 -65 -8 -9 28 87 45 119 6 11 9 22 6
24 -6 7 -123 -213 -148 -280 -13 -33 -24 -55 -26 -50 -2 6 15 52 38 104 41 96
110 280 104 280 -10 0 -87 -157 -116 -235 -32 -87 -49 -121 -49 -98 0 6 11 35
24 65 29 64 98 280 92 285 -2 3 -7 -5 -11 -16 -3 -12 -10 -21 -15 -21 -6 0 -5
11 1 26 20 55 0 33 -35 -37 -39 -78 -44 -75 -21 11 15 57 19 98 9 87 -3 -3
-16 -34 -29 -69 l-23 -63 4 90 4 90 -15 -64 c-8 -36 -17 -66 -19 -68 -1 -2 -6
28 -9 67 -3 38 -10 77 -15 87 -10 17 -18 -2 -35 -82 -2 -11 -8 9 -12 45 l-9
65 -12 -65 c-6 -36 -12 -56 -13 -45 -2 35 -20 90 -36 110 -16 20 -16 20 -11 0
20 -80 19 -81 -18 -25 -22 33 -34 45 -30 30z m171 -122 c-2 -13 -4 -3 -4 22 0
25 2 35 4 23 2 -13 2 -33 0 -45z m-212 -44 l30 -25 -32 15 c-17 9 -35 20 -38
26 -11 18 10 10 40 -16z m168 -52 c3 7 6 2 6 -11 l1 -25 -30 29 c-16 16 -30
31 -30 34 0 2 11 -6 24 -18 18 -17 25 -19 29 -9z m64 -14 c-3 -8 -6 -5 -6 6
-1 11 2 17 5 13 3 -3 4 -12 1 -19z m-44 -36 c3 7 6 2 6 -11 l1 -25 -30 29
c-16 16 -30 31 -30 34 0 2 11 -6 24 -18 18 -17 25 -19 29 -9z m34 -24 c-3 -8
-6 -5 -6 6 -1 11 2 17 5 13 3 -3 4 -12 1 -19z m-14 -26 c4 9 6 7 6 -4 1 -26
-12 -22 -45 15 l-29 32 31 -28 c23 -21 33 -25 37 -15z m24 -64 c-3 -8 -6 -5
-6 6 -1 11 2 17 5 13 3 -3 4 -12 1 -19z m14 -71 c4 -5 12 -1 18 9 9 16 10 17
11 2 0 -31 -25 -25 -82 20 -32 25 -58 47 -58 49 0 6 103 -69 111 -80z m-20 46
c13 -16 12 -17 -3 -4 -17 13 -22 21 -14 21 2 0 10 -8 17 -17z m26 -15 c-3 -8
-6 -5 -6 6 -1 11 2 17 5 13 3 -3 4 -12 1 -19z m13 -81 c0 -4 -16 4 -35 19 -45
34 -45 41 0 12 19 -13 35 -27 35 -31z m15 -71 c11 -8 16 -15 10 -15 -5 0 -23
11 -40 25 -31 26 -6 18 30 -10z m48 -4 c-3 -12 -9 -22 -14 -22 -12 0 -11 7 3
30 15 24 19 21 11 -8z m-27 -43 c3 -6 -5 -3 -20 6 -14 10 -26 19 -26 22 0 7
39 -17 46 -28z m-46 -25 c0 -2 -9 0 -20 6 -11 6 -20 13 -20 16 0 2 9 0 20 -6
11 -6 20 -13 20 -16z m75 -56 c0 -7 4 -19 9 -27 6 -8 -1 -7 -18 4 -30 20 -33
27 -8 19 9 -3 1 9 -18 26 l-35 32 35 -21 c19 -11 35 -26 35 -33z m286 -11
c-10 -9 -11 -8 -5 6 3 10 9 15 12 12 3 -3 0 -11 -7 -18z m-261 -58 c0 -5 -13
0 -30 13 -16 12 -30 23 -30 25 0 2 14 -3 30 -12 17 -9 30 -20 30 -26z m224
-11 c-28 -56 -137 -218 -146 -218 -21 0 -16 10 96 168 61 87 77 103 50 50z
m-155 -30 c-26 -52 -26 -52 -33 -40 -5 8 39 82 50 82 2 0 -5 -19 -17 -42z
m-49 -39 c0 -5 -13 0 -30 13 -16 12 -30 23 -30 25 0 2 14 -3 30 -12 17 -9 30
-20 30 -26z m23 -117 c9 -8 15 -17 13 -19 -3 -4 -92 59 -106 75 -9 10 74 -41
93 -56z m-43 -37 c11 -13 10 -14 -4 -9 -9 3 -16 10 -16 15 0 13 6 11 20 -6z
m80 -69 c0 -5 -13 3 -30 19 -16 16 -30 30 -30 32 0 2 14 -6 30 -19 17 -12 30
-26 30 -32z"/>
<path d="M1940 790 c8 -5 20 -10 25 -10 6 0 3 5 -5 10 -8 5 -19 10 -25 10 -5
0 -3 -5 5 -10z"/>
<path d="M3592 541 c-21 -10 -31 -20 -27 -29 3 -9 0 -12 -9 -9 -10 4 -13 1
-10 -7 4 -10 -3 -12 -23 -10 -32 3 -166 -54 -157 -67 3 -5 -7 -9 -23 -9 -28
-1 -99 -28 -76 -29 6 -1 14 -9 16 -18 4 -14 5 -14 6 3 1 23 29 28 43 9 5 -6 8
-5 8 3 0 7 4 11 10 7 11 -7 77 20 100 40 8 7 20 14 25 14 6 0 24 7 40 15 17 8
44 20 60 26 17 7 24 15 17 17 -10 4 -10 8 -1 19 13 16 33 19 24 4 -8 -12 15
-13 34 -1 16 11 10 34 -10 36 -7 0 -29 -6 -47 -14z"/>
<path d="M3216 354 c-6 -15 -4 -15 11 -3 15 12 16 12 10 -3 -5 -15 -4 -16 13
-6 10 7 16 16 14 20 -9 14 -42 8 -48 -8z"/>
</g>
</svg>
